<svg xmlns="http://www.w3.org/2000/svg" xmlns:xlink="http://www.w3.org/1999/xlink" version="1.1" id="Ebene_1" x="0px" y="0px" xml:space="preserve" viewBox="124.87 79.97 352.67 70.35">
<rect x="278.969" y="80.972" width="1" height="69.174"/>
<g>
	<path d="M183.674,98.246c-0.016,1.169-0.033,2.338-0.033,3.507v2.223c0.017,1.136,0.033,2.288,0.033,3.425   c0,0.526,0,1.004,0.033,1.563h0.856c1.597-0.017,2.157-0.033,2.964-0.099l0.099,0.099c-0.033,0.362-0.033,0.379-0.049,0.774   l-0.083,0.099c-0.28-0.017-0.444-0.033-0.823-0.033h-2.239c-0.856-0.017-1.136,0-1.746,0.017l-0.099-0.099   c0.017-0.643,0.017-1.334,0.017-2.585c0-2.882-0.017-5.993-0.132-8.874l0.099-0.083c0.461-0.017,0.642-0.017,1.004-0.032   L183.674,98.246z"/>
	<path d="M189.585,105.44c-0.033,2.025,0.691,3.705,2.684,3.705c0.214,0,0.988,0,1.762-0.643l0.115,0.066   c-0.049,0.329-0.049,0.411-0.066,0.839l-0.099,0.132c-0.132,0.083-0.313,0.198-0.609,0.28c-0.461,0.132-1.021,0.164-1.333,0.164   c-0.609,0-1.729-0.099-2.568-1.185c-0.445-0.561-0.906-1.564-0.906-3.244c0-2.717,1.284-4.347,3.095-4.347   c1.12,0,1.762,0.609,2.091,1.054c0.658,0.938,0.675,2.289,0.675,3.079l-0.115,0.099H189.585z M193.355,104.65   c0-0.312,0-0.708-0.099-1.152c-0.296-1.219-1.103-1.531-1.646-1.531c-1.054,0-1.811,1.037-1.959,2.684H193.355z"/>
	<path d="M196.88,109.804c-0.428-0.017-0.56-0.017-0.955,0.033l-0.099-0.099c0.033-0.856,0.065-1.614,0.065-3.705   c0-1.498,0-3.128-0.082-4.494l0.082-0.083c0.461-0.049,0.577-0.082,0.988-0.164l0.082,0.099c-0.033,0.658-0.066,1.301-0.066,2.766   c0,0.115,0,2.651,0.033,3.721c0.016,0.494,0.033,0.972,0.049,1.466v0.362L196.88,109.804z M196.929,98.542   c-0.428,0-0.543,0-0.988,0.082l-0.115-0.099c0.016-0.51,0.016-0.593,0.016-1.021l0.115-0.099c0.494-0.033,0.576-0.05,0.988-0.115   l0.115,0.099c-0.033,0.494-0.033,0.643-0.033,1.037L196.929,98.542z"/>
	<path d="M199.926,97.291c-0.033,0.543-0.049,1.284-0.049,4.643c0.609-0.461,1.251-0.74,2.009-0.74c1.646,0,2.914,1.498,2.914,4   c0,2.025-0.823,3.276-1.646,3.902c-0.906,0.675-1.894,0.708-3.161,0.708c-0.461,0-0.576,0-1.004,0.017l-0.099-0.082   c0.017-1.07,0-2.157,0-3.228c0-1.795,0-4.709-0.066-7.211c-0.033-1.037-0.066-1.301-0.115-1.845l0.083-0.099   c0.444-0.032,0.56-0.049,1.037-0.164L199.926,97.291z M199.876,105.968c0.033,1.004,0.033,1.992,0.033,2.996   c0.198,0.017,0.346,0.017,0.461,0.017c0.873,0,1.876-0.132,2.584-1.004c0.56-0.676,0.807-1.729,0.807-2.75   c0-1.531-0.577-3.161-2.107-3.161c-0.906,0-1.499,0.543-1.778,0.79V105.968z"/>
	<path d="M210.892,109.738c0.049-0.758,0.082-2.717,0.082-3.606c0-0.543,0-1.662-0.033-2.255c-0.017-0.461-0.066-1.778-1.383-1.778   c-0.757,0-1.481,0.494-2.058,1.103c-0.017,2.174-0.017,4.347,0.082,6.504l-0.099,0.099c-0.478,0-0.609,0-0.938,0.033l-0.099-0.099   c0.033-1.054,0.049-2.107,0.049-3.161c0-1.68,0-3.359-0.083-5.022l0.066-0.099c0.478-0.065,0.576-0.082,0.988-0.164l0.099,0.099   c-0.049,0.461-0.065,0.51-0.082,0.905c0.691-0.576,1.416-1.07,2.404-1.07c0.741,0,1.366,0.313,1.745,0.955   c0.329,0.576,0.329,1.136,0.329,2.52l0.017,1.646v1.86c0,0.807,0.017,1.054,0.049,1.498l-0.099,0.099c-0.412,0-0.461,0-0.938,0.033   L210.892,109.738z"/>
	<path d="M215.042,109.804c-0.428-0.017-0.56-0.017-0.955,0.033l-0.099-0.099c0.033-0.856,0.065-1.614,0.065-3.705   c0-1.498,0-3.128-0.082-4.494l0.082-0.083c0.461-0.049,0.577-0.082,0.988-0.164l0.082,0.099c-0.033,0.658-0.066,1.301-0.066,2.766   c0,0.115,0,2.651,0.033,3.721c0.016,0.494,0.033,0.972,0.049,1.466v0.362L215.042,109.804z M215.091,98.542   c-0.428,0-0.543,0-0.988,0.082l-0.115-0.099c0.016-0.51,0.016-0.593,0.016-1.021l0.115-0.099c0.494-0.033,0.576-0.05,0.988-0.115   l0.115,0.099c-0.033,0.494-0.033,0.643-0.033,1.037L215.091,98.542z"/>
	<path d="M217.742,109.03l0.774,0.016c1.844-0.016,2.272-0.032,2.897-0.065l0.083,0.082c-0.017,0.313-0.033,0.346-0.033,0.676   l-0.099,0.099c-0.774-0.033-1.12-0.033-1.531-0.033h-1.63c-0.856-0.017-0.971-0.017-1.894,0.017l-0.049-0.099   c0.659-1.235,0.889-1.663,1.811-3.523l1.976-4.083l-0.889,0.017c-0.823,0.016-1.762,0.016-2.453,0.032l-0.083-0.099   c0.017-0.181,0.033-0.296,0.049-0.609l0.083-0.099c0.543,0.017,0.593,0.017,1.152,0.017h2.256c0.576,0,0.691-0.017,1.268-0.033   l0.066,0.099c-0.132,0.264-0.791,1.516-0.938,1.795l-0.741,1.481L217.742,109.03z"/>
	<path d="M227.918,109.804c-0.428,0-0.576,0-1.004,0.033l-0.099-0.099c0.033-1.252,0.033-1.466,0.033-2.602   c0-1.037-0.033-5.137-0.065-6.569c-0.017-0.758-0.05-1.531-0.083-2.289l0.083-0.099c0.428,0,0.56,0,1.021-0.032l0.099,0.099   c-0.016,1.07-0.016,2.14-0.016,3.21c0,3.952,0.033,5.104,0.131,8.249L227.918,109.804z"/>
	<path d="M234.537,109.738c0.049-0.758,0.082-2.717,0.082-3.606c0-0.543,0-1.662-0.033-2.255c-0.017-0.461-0.066-1.778-1.383-1.778   c-0.757,0-1.481,0.494-2.058,1.103c-0.017,2.174-0.017,4.347,0.082,6.504l-0.099,0.099c-0.478,0-0.609,0-0.938,0.033l-0.099-0.099   c0.033-1.054,0.049-2.107,0.049-3.161c0-1.68,0-3.359-0.083-5.022l0.066-0.099c0.478-0.065,0.576-0.082,0.988-0.164l0.099,0.099   c-0.049,0.461-0.065,0.51-0.082,0.905c0.691-0.576,1.416-1.07,2.404-1.07c0.741,0,1.366,0.313,1.745,0.955   c0.329,0.576,0.329,1.136,0.329,2.52l0.017,1.646v1.86c0,0.807,0.017,1.054,0.049,1.498l-0.099,0.099c-0.412,0-0.461,0-0.938,0.033   L234.537,109.738z"/>
	<path d="M237.172,108.536c0.264,0.214,0.84,0.708,1.844,0.708c1.07,0,1.63-0.774,1.63-1.63c0-0.89-0.543-1.186-1.202-1.548   l-0.527-0.28c-1.054-0.576-1.877-1.021-1.877-2.288c0-0.675,0.247-1.186,0.543-1.515c0.642-0.725,1.63-0.774,2.009-0.774   c0.264,0,1.07,0.033,1.762,0.362l0.049,0.115c-0.017,0.132-0.033,0.28-0.049,0.412c0,0.148-0.017,0.296-0.017,0.444l-0.099,0.033   c-0.428-0.412-1.021-0.609-1.613-0.609c-1.038,0-1.564,0.609-1.564,1.416s0.543,1.119,1.103,1.416l0.659,0.329   c0.873,0.444,1.91,0.972,1.91,2.388c0,0.954-0.609,2.453-2.717,2.453c-0.362,0-1.186-0.05-1.943-0.396l-0.066-0.148   c0.017-0.147,0.033-0.296,0.033-0.444c0.016-0.132,0.016-0.264,0.016-0.411L237.172,108.536z"/>
	<path d="M245.586,102.181c-0.477-0.017-1.152-0.033-1.432-0.033v4.445c0,0.297,0,0.593,0.017,0.873c0,0.889,0,1.597,0.873,1.597   c0.362,0,0.527-0.115,0.675-0.197l0.099,0.065c-0.049,0.28-0.049,0.362-0.049,0.692l-0.099,0.131   c-0.148,0.05-0.412,0.165-0.889,0.165c-1.054,0-1.432-0.626-1.564-1.284c-0.066-0.346-0.066-0.691-0.066-1.399v-0.889   c0.017-1.548,0.017-1.812,0-4.199c-0.264,0-0.691,0.017-0.955,0.017l-0.082-0.099c0.033-0.247,0.033-0.396,0.049-0.626l0.082-0.099   c0.313,0.017,0.609,0.017,0.922,0.033v-0.708c0-0.725-0.017-0.955-0.049-1.334l0.082-0.099c0.379-0.065,0.527-0.115,0.922-0.23   l0.099,0.099c-0.049,0.708-0.049,1.005-0.066,2.272c0.724-0.017,0.922-0.017,1.498-0.05l0.083,0.1   c-0.033,0.246-0.049,0.395-0.066,0.658L245.586,102.181z"/>
	<path d="M247.941,109.804c-0.428-0.017-0.56-0.017-0.955,0.033l-0.099-0.099c0.033-0.856,0.065-1.614,0.065-3.705   c0-1.498,0-3.128-0.082-4.494l0.082-0.083c0.461-0.049,0.577-0.082,0.988-0.164l0.082,0.099c-0.033,0.658-0.066,1.301-0.066,2.766   c0,0.115,0,2.651,0.033,3.721c0.016,0.494,0.033,0.972,0.049,1.466v0.362L247.941,109.804z M247.99,98.542   c-0.428,0-0.543,0-0.988,0.082l-0.115-0.099c0.016-0.51,0.016-0.593,0.016-1.021l0.115-0.099c0.494-0.033,0.576-0.05,0.988-0.115   l0.115,0.099c-0.033,0.494-0.033,0.643-0.033,1.037L247.99,98.542z"/>
	<path d="M252.436,102.181c-0.478-0.017-1.152-0.033-1.433-0.033v4.445c0,0.297,0,0.593,0.017,0.873c0,0.889,0,1.597,0.873,1.597   c0.362,0,0.526-0.115,0.675-0.197l0.099,0.065c-0.049,0.28-0.049,0.362-0.049,0.692l-0.1,0.131   c-0.147,0.05-0.411,0.165-0.889,0.165c-1.054,0-1.433-0.626-1.564-1.284c-0.065-0.346-0.065-0.691-0.065-1.399v-0.889   c0.017-1.548,0.017-1.812,0-4.199c-0.264,0-0.691,0.017-0.955,0.017l-0.082-0.099c0.033-0.247,0.033-0.396,0.049-0.626l0.083-0.099   c0.312,0.017,0.609,0.017,0.922,0.033v-0.708c0-0.725-0.017-0.955-0.05-1.334l0.083-0.099c0.378-0.065,0.526-0.115,0.922-0.23   l0.099,0.099c-0.05,0.708-0.05,1.005-0.066,2.272c0.725-0.017,0.923-0.017,1.499-0.05l0.082,0.1   c-0.033,0.246-0.05,0.395-0.066,0.658L252.436,102.181z"/>
	<path d="M258.265,109.014c-0.691,0.593-1.351,0.938-2.338,0.938c-0.297,0-1.614,0-2.059-1.449   c-0.148-0.494-0.148-1.054-0.148-1.729v-1.416c0-0.444,0.017-1.466,0.017-2.239c0-0.872-0.017-1.234-0.032-1.646l0.082-0.082   c0.444,0,0.543,0,0.955-0.033l0.082,0.099c-0.05,1.317-0.065,2.635-0.065,3.952c0,0.23-0.017,1.383-0.017,1.63   c0,0.543,0,2.123,1.531,2.123c0.922,0,1.531-0.592,1.959-1.021c0.017-3.095,0.017-4.906-0.066-6.668l0.083-0.082   c0.411,0,0.494,0,0.938-0.033l0.099,0.099c-0.05,1.268-0.05,1.399-0.05,4.891c0,1.53,0.017,2.156,0.083,3.358l-0.1,0.099   c-0.395,0-0.493,0.017-0.889,0.033l-0.099-0.099L258.265,109.014z"/>
	<path d="M263.747,102.181c-0.478-0.017-1.152-0.033-1.433-0.033v4.445c0,0.297,0,0.593,0.017,0.873c0,0.889,0,1.597,0.873,1.597   c0.362,0,0.526-0.115,0.675-0.197l0.099,0.065c-0.049,0.28-0.049,0.362-0.049,0.692l-0.1,0.131   c-0.147,0.05-0.411,0.165-0.889,0.165c-1.054,0-1.433-0.626-1.564-1.284c-0.065-0.346-0.065-0.691-0.065-1.399v-0.889   c0.017-1.548,0.017-1.812,0-4.199c-0.264,0-0.691,0.017-0.955,0.017l-0.082-0.099c0.033-0.247,0.033-0.396,0.049-0.626l0.083-0.099   c0.312,0.017,0.609,0.017,0.922,0.033v-0.708c0-0.725-0.017-0.955-0.05-1.334l0.083-0.099c0.378-0.065,0.526-0.115,0.922-0.23   l0.099,0.099c-0.05,0.708-0.05,1.005-0.066,2.272c0.725-0.017,0.923-0.017,1.499-0.05l0.082,0.1   c-0.033,0.246-0.05,0.395-0.066,0.658L263.747,102.181z"/>
	<path d="M265.674,105.44c-0.033,2.025,0.691,3.705,2.684,3.705c0.214,0,0.988,0,1.762-0.643l0.115,0.066   c-0.05,0.329-0.05,0.411-0.065,0.839l-0.1,0.132c-0.131,0.083-0.312,0.198-0.608,0.28c-0.461,0.132-1.021,0.164-1.334,0.164   c-0.609,0-1.729-0.099-2.568-1.185c-0.444-0.561-0.905-1.564-0.905-3.244c0-2.717,1.284-4.347,3.095-4.347   c1.12,0,1.762,0.609,2.091,1.054c0.659,0.938,0.676,2.289,0.676,3.079l-0.115,0.099H265.674z M269.444,104.65   c0-0.312,0-0.708-0.099-1.152c-0.297-1.219-1.104-1.531-1.646-1.531c-1.054,0-1.812,1.037-1.96,2.684H269.444z"/>
	<path d="M128.38,119.697c-0.478-0.017-0.675-0.017-1.416-0.017c-0.017,2.52,0.033,5.038,0.115,7.541l-0.082,0.082   c-0.461,0-0.494,0-0.906,0.033l-0.099-0.099c0.016-0.593,0.016-0.856,0.016-1.548c0-1.992,0-4.034-0.016-6.026   c-0.543,0.017-0.823,0.017-1.038,0.033l-0.082-0.082c0.017-0.297,0.017-0.33,0.033-0.676l0.099-0.099   c0.461,0.033,0.494,0.033,0.971,0.033l-0.017-0.773c-0.016-0.774-0.016-1.284,0.099-1.713c0.181-0.773,0.807-1.498,1.91-1.498   c0.247,0,0.444,0.033,0.576,0.065l0.083,0.132c-0.049,0.28-0.049,0.362-0.066,0.593l-0.099,0.099   c-0.115-0.049-0.214-0.082-0.428-0.082c-0.412,0-0.659,0.197-0.757,0.312c-0.33,0.379-0.33,1.07-0.313,1.877v1.005   c0.807-0.017,0.807-0.017,1.465-0.033l0.115,0.115c-0.033,0.264-0.033,0.346-0.066,0.626L128.38,119.697z"/>
	<path d="M135.197,120.932c0.132,0.445,0.296,1.137,0.296,2.272c0,1.087-0.165,2.206-0.807,3.096   c-0.609,0.823-1.433,1.169-2.354,1.169c-1.169,0-1.877-0.576-2.239-1.038c-0.823-1.037-0.889-2.552-0.889-3.292   c0-0.561,0-2.421,1.054-3.557c0.692-0.741,1.515-0.889,2.157-0.889C133.863,118.693,134.769,119.582,135.197,120.932z    M133.731,120.158c-0.478-0.626-1.07-0.658-1.333-0.658c-1.515,0-2.124,1.366-2.124,3.507c0,0.807,0.083,2.107,0.625,2.881   c0.247,0.379,0.675,0.773,1.482,0.773c0.362,0,0.725-0.099,1.037-0.312c0.873-0.626,1.004-2.124,1.004-3.079   C134.423,122.463,134.341,120.965,133.731,120.158z"/>
	<path d="M138.178,127.304c-0.445,0-0.527-0.017-0.972,0.017l-0.082-0.082c0.017-0.676,0.033-1.186,0.033-2.388   c0-1.597,0-4.33-0.131-5.812l0.065-0.1c0.445-0.032,0.543-0.049,0.972-0.147l0.099,0.099c0,0.346-0.017,0.725-0.033,1.169   c0.197-0.396,0.642-1.383,1.745-1.383c0.296,0,0.478,0.082,0.593,0.132l0.066,0.115c0,0.131-0.017,0.263-0.033,0.395   c-0.017,0.165-0.017,0.329-0.017,0.494l-0.099,0.065c-0.132-0.065-0.378-0.181-0.724-0.181c-0.396,0-0.708,0.181-0.906,0.362   c-0.527,0.543-0.576,1.58-0.576,3.194c0,0.197,0.017,2.552,0.099,3.951L138.178,127.304z"/>
	<path d="M152.42,125.756c-0.033,0.412-0.049,0.527-0.066,1.005l-0.082,0.132c-0.642,0.411-1.564,0.625-2.387,0.625   c-2.98,0-4.808-2.486-4.808-5.878c0-1.712,0.444-3.342,1.3-4.462c0.791-1.037,1.877-1.695,3.573-1.695   c0.988,0,1.778,0.247,2.272,0.478l0.065,0.148c-0.016,0.132-0.049,0.247-0.065,0.378l-0.05,0.544l-0.099,0.049   c-0.708-0.625-1.547-0.74-2.124-0.74c-2.881,0-3.77,3.046-3.77,5.252c0,2.881,1.481,5.021,3.754,5.021   c1.333,0,2.107-0.658,2.387-0.905L152.42,125.756z"/>
	<path d="M159.205,120.932c0.132,0.445,0.296,1.137,0.296,2.272c0,1.087-0.165,2.206-0.807,3.096   c-0.609,0.823-1.433,1.169-2.354,1.169c-1.169,0-1.877-0.576-2.239-1.038c-0.823-1.037-0.889-2.552-0.889-3.292   c0-0.561,0-2.421,1.054-3.557c0.692-0.741,1.515-0.889,2.157-0.889C157.871,118.693,158.776,119.582,159.205,120.932z    M157.739,120.158c-0.478-0.626-1.07-0.658-1.333-0.658c-1.515,0-2.124,1.366-2.124,3.507c0,0.807,0.083,2.107,0.625,2.881   c0.247,0.379,0.675,0.773,1.482,0.773c0.362,0,0.725-0.099,1.037-0.312c0.873-0.626,1.004-2.124,1.004-3.079   C158.431,122.463,158.349,120.965,157.739,120.158z"/>
	<path d="M165.594,127.238c0.049-0.758,0.082-2.717,0.082-3.606c0-0.543,0-1.662-0.033-2.255c-0.017-0.461-0.066-1.778-1.383-1.778   c-0.757,0-1.481,0.494-2.058,1.103c-0.017,2.174-0.017,4.347,0.082,6.504l-0.099,0.099c-0.478,0-0.609,0-0.938,0.033l-0.099-0.099   c0.033-1.054,0.049-2.107,0.049-3.161c0-1.68,0-3.359-0.083-5.022l0.066-0.099c0.478-0.065,0.576-0.082,0.988-0.164l0.099,0.099   c-0.049,0.461-0.065,0.51-0.082,0.905c0.691-0.576,1.416-1.07,2.404-1.07c0.741,0,1.366,0.313,1.745,0.955   c0.329,0.576,0.329,1.136,0.329,2.52l0.017,1.646v1.86c0,0.807,0.017,1.054,0.049,1.498l-0.099,0.099c-0.412,0-0.461,0-0.938,0.033   L165.594,127.238z"/>
	<path d="M171.159,119.681c-0.477-0.017-1.152-0.033-1.432-0.033v4.445c0,0.297,0,0.593,0.017,0.873c0,0.889,0,1.597,0.873,1.597   c0.362,0,0.527-0.115,0.675-0.197l0.099,0.065c-0.049,0.28-0.049,0.362-0.049,0.692l-0.099,0.131   c-0.148,0.05-0.412,0.165-0.889,0.165c-1.054,0-1.432-0.626-1.564-1.284c-0.066-0.346-0.066-0.691-0.066-1.399v-0.889   c0.017-1.548,0.017-1.812,0-4.199c-0.264,0-0.691,0.017-0.955,0.017l-0.082-0.099c0.033-0.247,0.033-0.396,0.049-0.626l0.082-0.099   c0.313,0.017,0.609,0.017,0.922,0.033v-0.708c0-0.725-0.017-0.955-0.049-1.334l0.082-0.099c0.379-0.065,0.527-0.115,0.922-0.23   l0.099,0.099c-0.049,0.708-0.049,1.005-0.066,2.272c0.724-0.017,0.922-0.017,1.498-0.05l0.083,0.1   c-0.033,0.246-0.049,0.395-0.066,0.658L171.159,119.681z"/>
	<path d="M173.086,122.94c-0.033,2.025,0.691,3.705,2.684,3.705c0.214,0,0.988,0,1.762-0.643l0.115,0.066   c-0.049,0.329-0.049,0.411-0.066,0.839l-0.099,0.132c-0.132,0.083-0.313,0.198-0.609,0.28c-0.461,0.132-1.021,0.164-1.333,0.164   c-0.609,0-1.729-0.099-2.568-1.185c-0.445-0.561-0.906-1.564-0.906-3.244c0-2.717,1.284-4.347,3.095-4.347   c1.12,0,1.762,0.609,2.091,1.054c0.658,0.938,0.675,2.289,0.675,3.079l-0.115,0.099H173.086z M176.856,122.15   c0-0.312,0-0.708-0.099-1.152c-0.296-1.219-1.103-1.531-1.646-1.531c-1.054,0-1.811,1.037-1.959,2.684H176.856z"/>
	<path d="M179.359,118.956c0.444-0.065,0.51-0.065,0.955-0.147l0.082,0.082c-0.033,0.346-0.049,0.444-0.049,1.004   c0.576-0.543,1.218-1.169,2.272-1.169c0.988,0,1.515,0.643,1.729,1.284c0.543-0.576,1.317-1.284,2.552-1.284   c0.23,0,0.461,0.033,0.675,0.099c0.428,0.132,0.839,0.461,1.103,0.972c0.296,0.609,0.296,1.152,0.312,2.535v0.808   c-0.016,1.712-0.016,2.189,0.05,4.083l-0.083,0.082c-0.362,0-0.609,0.017-0.938,0.033l-0.099-0.099   c0.049-1.021,0.082-2.042,0.082-4.545c0-1.103-0.016-1.465-0.082-1.811c-0.049-0.28-0.214-1.268-1.333-1.268   c-0.725,0-1.4,0.461-2.009,1.119c0.066,0.412,0.066,0.511,0.099,1.613v0.708c0.017,0.791,0.017,1.564,0.033,2.354   c0,0.708,0.016,1.219,0.049,1.812l-0.099,0.082c-0.428,0-0.576,0.017-0.922,0.033l-0.082-0.099   c0.016-0.626,0.033-1.087,0.033-2.223c0-0.856,0-2.47-0.033-3.276c-0.033-0.626-0.083-2.107-1.367-2.107   c-0.395,0-1.004,0.099-1.926,1.103c-0.017,2.025,0.033,5.269,0.099,6.487l-0.099,0.082c-0.445,0-0.51,0-0.938,0.033l-0.099-0.099   c0.033-0.626,0.049-1.202,0.049-2.371c0-0.544,0-1.087-0.017-1.63c-0.033-3.392-0.049-3.573-0.099-4.183L179.359,118.956z"/>
	<path d="M191.989,118.907v0.708c0.247-0.23,0.955-0.906,2.075-0.906c0.757,0,1.465,0.362,1.959,0.955   c0.659,0.807,0.856,1.877,0.856,2.914c0,0.988-0.132,2.404-1.054,3.507c-0.906,1.087-2.025,1.269-2.964,1.269   c-0.312,0-0.56-0.017-0.839-0.05c0,1.465,0.017,1.646,0.099,3.293l-0.099,0.099c-0.428-0.017-0.51-0.017-0.988,0l-0.083-0.099   c0.033-2.206,0.049-3.589,0.049-5.285c0-2.42-0.033-4.38-0.148-6.257l0.082-0.099c0.428-0.032,0.56-0.049,0.955-0.147   L191.989,118.907z M192.005,126.464c0.214,0.05,0.362,0.066,0.675,0.066c0.527,0,1.152-0.05,1.778-0.461   c1.087-0.741,1.399-2.124,1.399-3.441c0-0.362-0.033-0.708-0.082-1.054c-0.28-1.466-1.103-2.025-1.926-2.025   c-0.988,0-1.63,0.758-1.861,1.021C191.989,122.645,191.989,123.747,192.005,126.464z"/>
	<path d="M204.124,120.932c0.132,0.445,0.296,1.137,0.296,2.272c0,1.087-0.165,2.206-0.807,3.096   c-0.609,0.823-1.433,1.169-2.354,1.169c-1.169,0-1.877-0.576-2.239-1.038c-0.823-1.037-0.889-2.552-0.889-3.292   c0-0.561,0-2.421,1.054-3.557c0.691-0.741,1.515-0.889,2.157-0.889C202.791,118.693,203.696,119.582,204.124,120.932z    M202.659,120.158c-0.478-0.626-1.07-0.658-1.333-0.658c-1.515,0-2.124,1.366-2.124,3.507c0,0.807,0.083,2.107,0.625,2.881   c0.247,0.379,0.675,0.773,1.482,0.773c0.362,0,0.725-0.099,1.037-0.312c0.873-0.626,1.004-2.124,1.004-3.079   C203.35,122.463,203.268,120.965,202.659,120.158z"/>
	<path d="M207.105,127.304c-0.445,0-0.527-0.017-0.972,0.017l-0.082-0.082c0.017-0.676,0.033-1.186,0.033-2.388   c0-1.597,0-4.33-0.131-5.812l0.065-0.1c0.445-0.032,0.543-0.049,0.972-0.147l0.099,0.099c0,0.346-0.017,0.725-0.033,1.169   c0.197-0.396,0.642-1.383,1.745-1.383c0.296,0,0.478,0.082,0.593,0.132l0.066,0.115c0,0.131-0.017,0.263-0.033,0.395   c-0.017,0.165-0.017,0.329-0.017,0.494l-0.099,0.065c-0.132-0.065-0.378-0.181-0.724-0.181c-0.396,0-0.708,0.181-0.906,0.362   c-0.527,0.543-0.576,1.58-0.576,3.194c0,0.197,0.017,2.552,0.099,3.951L207.105,127.304z"/>
	<path d="M214.086,126.761c-0.461,0.362-0.988,0.691-1.828,0.691c-1.498,0-2.305-1.202-2.305-2.585c0-0.576,0.132-1.498,0.889-2.157   c0.659-0.576,1.597-0.773,2.305-0.922l0.938-0.197c0-1.12,0-2.059-1.499-2.059c-0.988,0-1.481,0.346-1.827,0.593l-0.115-0.065   c0.049-0.329,0.049-0.444,0.065-0.79l0.083-0.115c0.659-0.346,1.433-0.445,2.042-0.445c0.576,0,1.499,0.066,1.959,0.972   c0.263,0.511,0.263,0.938,0.247,2.289v1.992c0,1.827,0.017,2.288,0.099,3.227l-0.099,0.115c-0.395,0-0.461,0-0.839,0.033   l-0.099-0.099L214.086,126.761z M214.086,122.397c-1.515,0.346-1.63,0.362-2.025,0.576c-0.757,0.396-1.103,1.054-1.103,1.844   c0,0.905,0.445,1.812,1.499,1.812c0.79,0,1.3-0.461,1.63-0.758V122.397z"/>
	<path d="M218.088,127.304c-0.445,0-0.527-0.017-0.972,0.017l-0.082-0.082c0.017-0.676,0.033-1.186,0.033-2.388   c0-1.597,0-4.33-0.131-5.812l0.065-0.1c0.445-0.032,0.543-0.049,0.972-0.147l0.099,0.099c0,0.346-0.017,0.725-0.033,1.169   c0.197-0.396,0.642-1.383,1.745-1.383c0.296,0,0.478,0.082,0.593,0.132l0.066,0.115c0,0.131-0.017,0.263-0.033,0.395   c-0.017,0.165-0.017,0.329-0.017,0.494l-0.099,0.065c-0.132-0.065-0.378-0.181-0.724-0.181c-0.396,0-0.708,0.181-0.906,0.362   c-0.527,0.543-0.576,1.58-0.576,3.194c0,0.197,0.017,2.552,0.099,3.951L218.088,127.304z"/>
	<path d="M223.521,127.155c-0.033-0.065-0.049-0.147-0.082-0.23c-0.379-1.268-2.124-6.569-2.651-7.936l0.099-0.115   c0.445,0,0.593-0.017,0.972-0.05l0.131,0.1c0.017,0.065,0.033,0.131,0.049,0.181c0.148,0.609,0.28,1.004,1.054,3.589l0.938,3.096   l1.004-3.458c0.346-1.119,0.396-1.35,0.922-3.375l0.131-0.099c0.379,0.017,0.478,0.017,0.856,0l0.099,0.099   c-0.296,0.807-0.444,1.284-0.889,2.684l-1.021,3.244c-0.889,2.864-1.169,3.754-1.663,5.696l-0.115,0.115   c-0.412-0.033-0.51-0.033-0.955-0.017l-0.066-0.099c0.313-0.807,0.511-1.284,1.004-2.881L223.521,127.155z"/>
	<path d="M237.83,127.238c0.016-0.725,0.016-1.301,0.016-2.256c0-0.511-0.016-2.997-0.016-3.573h-0.33   c-0.494-0.017-0.988-0.017-1.481-0.017c-1.021,0-1.992,0.017-3.013,0.05c0,1.729,0.066,3.655,0.132,5.763l-0.099,0.099   c-0.461,0-0.56,0-0.988,0.033l-0.099-0.099c0-0.148,0.017-0.28,0.017-0.412c0.016-0.675,0.016-1.366,0.016-2.041   c0-0.593-0.033-5.45-0.049-6.701c-0.033-1.054-0.066-1.68-0.082-2.321l0.082-0.1c0.445,0,0.56,0,1.004-0.016l0.083,0.099   c-0.017,3.013-0.017,3.622-0.017,4.808c1.613,0.017,3.21,0.032,4.808-0.033c0-0.346-0.033-2.042-0.033-2.437   c-0.016-1.054-0.049-1.646-0.082-2.321l0.099-0.1c0.445,0.017,0.576,0,0.988-0.016l0.099,0.099   c-0.017,1.004-0.017,2.009-0.017,3.029c0,4.033,0.066,5.895,0.132,8.051c0,0.132,0.016,0.247,0.016,0.379l-0.099,0.099   c-0.444,0-0.527,0-0.988,0.033L237.83,127.238z"/>
	<path d="M242.112,127.304c-0.428-0.017-0.56-0.017-0.955,0.033l-0.099-0.099c0.033-0.856,0.065-1.614,0.065-3.705   c0-1.498,0-3.128-0.082-4.494l0.082-0.083c0.461-0.049,0.577-0.082,0.988-0.164l0.082,0.099c-0.033,0.658-0.066,1.301-0.066,2.766   c0,0.115,0,2.651,0.033,3.721c0.016,0.494,0.033,0.972,0.049,1.466v0.362L242.112,127.304z M242.161,116.042   c-0.428,0-0.543,0-0.988,0.082l-0.115-0.099c0.016-0.51,0.016-0.593,0.016-1.021l0.115-0.099c0.494-0.033,0.576-0.05,0.988-0.115   l0.115,0.099c-0.033,0.494-0.033,0.643-0.033,1.037L242.161,116.042z"/>
	<path d="M243.676,126.036c0.264,0.214,0.84,0.708,1.844,0.708c1.07,0,1.63-0.774,1.63-1.63c0-0.89-0.543-1.186-1.202-1.548   l-0.527-0.28c-1.054-0.576-1.877-1.021-1.877-2.288c0-0.675,0.247-1.186,0.543-1.515c0.642-0.725,1.63-0.774,2.009-0.774   c0.264,0,1.07,0.033,1.762,0.362l0.049,0.115c-0.017,0.132-0.033,0.28-0.049,0.412c0,0.148-0.017,0.296-0.017,0.444l-0.099,0.033   c-0.428-0.412-1.021-0.609-1.613-0.609c-1.038,0-1.564,0.609-1.564,1.416s0.543,1.119,1.103,1.416l0.659,0.329   c0.873,0.444,1.91,0.972,1.91,2.388c0,0.954-0.609,2.453-2.717,2.453c-0.362,0-1.186-0.05-1.943-0.396l-0.066-0.148   c0.017-0.147,0.033-0.296,0.033-0.444c0.016-0.132,0.016-0.264,0.016-0.411L243.676,126.036z"/>
	<path d="M252.09,119.681c-0.478-0.017-1.152-0.033-1.433-0.033v4.445c0,0.297,0,0.593,0.017,0.873c0,0.889,0,1.597,0.873,1.597   c0.362,0,0.526-0.115,0.675-0.197l0.099,0.065c-0.049,0.28-0.049,0.362-0.049,0.692l-0.1,0.131   c-0.147,0.05-0.411,0.165-0.889,0.165c-1.054,0-1.433-0.626-1.564-1.284c-0.065-0.346-0.065-0.691-0.065-1.399v-0.889   c0.017-1.548,0.017-1.812,0-4.199c-0.264,0-0.691,0.017-0.955,0.017l-0.082-0.099c0.033-0.247,0.033-0.396,0.049-0.626l0.083-0.099   c0.312,0.017,0.609,0.017,0.922,0.033v-0.708c0-0.725-0.017-0.955-0.05-1.334l0.083-0.099c0.378-0.065,0.526-0.115,0.922-0.23   l0.099,0.099c-0.05,0.708-0.05,1.005-0.066,2.272c0.725-0.017,0.923-0.017,1.499-0.05l0.082,0.1   c-0.033,0.246-0.05,0.395-0.066,0.658L252.09,119.681z"/>
	<path d="M258.988,120.932c0.132,0.445,0.297,1.137,0.297,2.272c0,1.087-0.165,2.206-0.807,3.096   c-0.609,0.823-1.433,1.169-2.354,1.169c-1.169,0-1.877-0.576-2.239-1.038c-0.823-1.037-0.889-2.552-0.889-3.292   c0-0.561,0-2.421,1.054-3.557c0.691-0.741,1.515-0.889,2.156-0.889C257.655,118.693,258.561,119.582,258.988,120.932z    M257.523,120.158c-0.478-0.626-1.07-0.658-1.334-0.658c-1.515,0-2.123,1.366-2.123,3.507c0,0.807,0.082,2.107,0.625,2.881   c0.247,0.379,0.675,0.773,1.482,0.773c0.361,0,0.724-0.099,1.037-0.312c0.872-0.626,1.004-2.124,1.004-3.079   C258.215,122.463,258.133,120.965,257.523,120.158z"/>
	<path d="M261.969,127.304c-0.444,0-0.526-0.017-0.971,0.017l-0.083-0.082c0.017-0.676,0.033-1.186,0.033-2.388   c0-1.597,0-4.33-0.132-5.812l0.066-0.1c0.444-0.032,0.543-0.049,0.971-0.147l0.1,0.099c0,0.346-0.017,0.725-0.033,1.169   c0.197-0.396,0.642-1.383,1.745-1.383c0.296,0,0.478,0.082,0.593,0.132l0.065,0.115c0,0.131-0.017,0.263-0.032,0.395   c-0.017,0.165-0.017,0.329-0.017,0.494l-0.099,0.065c-0.132-0.065-0.379-0.181-0.725-0.181c-0.396,0-0.708,0.181-0.906,0.362   c-0.526,0.543-0.576,1.58-0.576,3.194c0,0.197,0.017,2.552,0.1,3.951L261.969,127.304z"/>
	<path d="M267.402,127.155c-0.033-0.065-0.049-0.147-0.082-0.23c-0.379-1.268-2.124-6.569-2.651-7.936l0.1-0.115   c0.444,0,0.593-0.017,0.971-0.05l0.132,0.1c0.017,0.065,0.033,0.131,0.05,0.181c0.147,0.609,0.279,1.004,1.054,3.589l0.938,3.096   l1.004-3.458c0.346-1.119,0.396-1.35,0.922-3.375l0.132-0.099c0.379,0.017,0.478,0.017,0.856,0l0.099,0.099   c-0.296,0.807-0.444,1.284-0.889,2.684l-1.021,3.244c-0.889,2.864-1.169,3.754-1.662,5.696l-0.116,0.115   c-0.411-0.033-0.51-0.033-0.954-0.017l-0.066-0.099c0.313-0.807,0.511-1.284,1.005-2.881L267.402,127.155z"/>
</g>
<g>
	<g>
		<g>
			<rect x="289.383" y="106.246" fill="#C6C6C6" width="21.061" height="21.061"/>
			<rect x="314.655" y="106.246" fill="#C6C6C6" width="21.061" height="21.061"/>
			<rect x="289.383" y="80.972" fill="#0075BF" width="21.061" height="21.061"/>
			<rect x="314.655" y="80.972" fill="#C6C6C6" width="21.061" height="21.061"/>
		</g>
		<g>
			<path d="M347.934,98.675c-1.739-0.025-2.156,0-4.044,0.072l-0.147-0.146c0.05-3.209,0.073-6.396,0.073-9.607     c0-2.354,0-3.701-0.123-7.477l0.123-0.146c1.692,0.025,2.207,0.025,4.069-0.074l0.147,0.148     c-0.074,2.182-0.099,4.338-0.099,6.494c0,3.555,0.024,7.084,0.146,10.59L347.934,98.675z"/>
			<path d="M356.562,98.601c0.022-1.494,0.022-3.137,0.022-4.336c0-1.424,0-3.092-0.072-4.242c-0.024-0.467-0.098-1.521-1.077-1.521     c-0.393,0-0.835,0.199-1.326,0.787c-0.022,0.146-0.022,0.316-0.022,0.488c-0.025,0.859,0.074,6.814,0.171,8.752l-0.148,0.146     c-1.641-0.025-2.033-0.025-3.723,0.049l-0.148-0.123c0.098-2.303,0.098-3.994,0.098-5.023c0-2.574-0.073-5.025-0.246-7.402     l0.124-0.146c1.74-0.246,2.158-0.32,3.774-0.664l0.173,0.148c-0.052,0.881-0.052,0.957-0.074,1.52     c0.858-0.785,1.862-1.594,3.308-1.594c0.467,0,0.956,0.098,1.373,0.318c1.544,0.857,1.57,2.672,1.594,5.834v1.594     c0.049,3.529,0.072,3.922,0.146,5.344l-0.146,0.146c-1.717-0.025-2.206,0-3.676,0.072L356.562,98.601z"/>
			<path d="M362.271,95.513c0.417,0.344,1.203,1.004,2.454,1.004c1.37,0,1.689-0.832,1.689-1.322c0-0.809-0.61-1.178-1.274-1.57     c-1.812-1.076-3.161-1.887-3.161-4.141c0-0.49,0.024-1.986,1.274-3.039c0.955-0.809,2.23-1.029,3.479-1.029     c0.836,0,1.938,0.098,2.894,0.465l0.1,0.172c0,0.441-0.025,0.881-0.05,1.322v1.25l-0.171,0.051     c-0.318-0.295-0.956-0.883-2.206-0.883c-1.227,0-1.618,0.662-1.618,1.225c0,0.809,0.588,1.129,1.861,1.889     c1.228,0.734,2.674,1.617,2.674,3.824c0,1.127-0.419,2.23-1.25,3.014c-1.079,1.029-2.38,1.201-3.556,1.201     c-0.955,0-2.182-0.123-3.284-0.611l-0.122-0.223c0.024-0.465,0.049-0.93,0.049-1.422c0.024-0.367,0.024-0.734,0.024-1.102     L362.271,95.513z"/>
			<path d="M377.419,88.429c-1.077-0.023-1.102-0.023-1.689-0.023v3.088c-0.025,0.662-0.025,1.545-0.025,2.205     c0,1.252,0.025,2.451,1.127,2.451c0.395,0,0.664-0.146,0.81-0.244l0.147,0.123c-0.072,1.078-0.098,1.25-0.121,2.402l-0.148,0.195     c-0.562,0.172-1.249,0.244-2.009,0.244c-0.54,0-2.083,0-2.918-1.102c-0.611-0.834-0.611-1.912-0.589-3.652v-1.471     c0-0.613,0.026-3.604,0.026-4.289c-0.442,0-0.687,0.023-1.202,0.049l-0.122-0.146c0.05-1.105,0.05-1.105,0.099-2.402l0.147-0.148     c0.464,0.025,0.588,0.025,1.101,0c0-0.441,0-0.686-0.022-2.99l0.122-0.172c1.616-0.391,2.084-0.539,3.504-0.98l0.172,0.123     c-0.048,1.078-0.073,1.373-0.098,4.094c0.884-0.025,1.079-0.025,1.789-0.074l0.148,0.148c-0.074,1.127-0.074,1.273-0.124,2.402     L377.419,88.429z"/>
			<path d="M382.862,98.675c-1.57-0.025-2.158-0.025-3.873,0.072l-0.146-0.146c0.072-1.568,0.122-3.113,0.122-5.881     c0-3.873-0.122-5.223-0.219-6.521l0.121-0.146c1.715-0.246,2.156-0.318,3.849-0.688l0.146,0.148     c-0.024,0.344-0.024,0.686-0.024,1.004c-0.024,1.471-0.048,2.918-0.048,4.389c0,2.549,0.048,5.074,0.219,7.623L382.862,98.675z      M382.495,83.406c-1.472,0.17-1.913,0.221-3.409,0.49l-0.146-0.148c0.025-1.299,0-1.617-0.048-2.965l0.146-0.148     c1.693-0.172,1.985-0.221,3.481-0.441l0.147,0.148c-0.051,1.396-0.025,1.764-0.025,2.916L382.495,83.406z"/>
			<path d="M390.705,88.429c-1.078-0.023-1.104-0.023-1.691-0.023v3.088c-0.023,0.662-0.023,1.545-0.023,2.205     c0,1.252,0.023,2.451,1.127,2.451c0.395,0,0.66-0.146,0.81-0.244l0.146,0.123c-0.074,1.078-0.098,1.25-0.124,2.402l-0.146,0.195     c-0.562,0.172-1.249,0.244-2.011,0.244c-0.539,0-2.082,0-2.915-1.102c-0.613-0.834-0.613-1.912-0.588-3.652v-1.471     c0-0.613,0.023-3.604,0.023-4.289c-0.44,0-0.686,0.023-1.199,0.049l-0.123-0.146c0.048-1.105,0.048-1.105,0.098-2.402     l0.146-0.148c0.467,0.025,0.589,0.025,1.104,0c0-0.441,0-0.686-0.026-2.99l0.123-0.172c1.618-0.391,2.083-0.539,3.506-0.98     l0.172,0.123c-0.051,1.078-0.074,1.373-0.1,4.094c0.883-0.025,1.078-0.025,1.789-0.074l0.146,0.148     c-0.07,1.127-0.07,1.273-0.119,2.402L390.705,88.429z"/>
			<path d="M398.599,97.279c-0.687,0.734-1.742,1.641-3.383,1.641c-2.648,0-2.892-2.377-2.967-2.965     c-0.075-0.736-0.075-1.543-0.075-2.99v-1.299c0.027-3.529,0-4.117-0.07-5.785l0.122-0.146c1.545,0,1.934,0,3.578-0.148     l0.146,0.148c0,0.857-0.049,5.049-0.049,5.98c0,0.588,0,2.598,0.075,3.039c0.023,0.27,0.172,1.152,1.176,1.152     c0.712,0,1.078-0.393,1.397-0.711v-2.01c0-0.465-0.075-5.27-0.146-7.305l0.146-0.146c1.618-0.025,2.034-0.049,3.604-0.148     l0.146,0.148c-0.025,1.52-0.048,2.377-0.048,4.705c0,0.516,0,3.678,0.022,5.1c0.025,1.371,0.051,2.23,0.075,2.99l-0.124,0.146     c-1.739-0.025-2.034,0-3.551,0.049l-0.124-0.098L398.599,97.279z"/>
			<path d="M410.117,88.429c-1.08-0.023-1.102-0.023-1.689-0.023v3.088c-0.026,0.662-0.026,1.545-0.026,2.205     c0,1.252,0.026,2.451,1.128,2.451c0.393,0,0.663-0.146,0.809-0.244l0.146,0.123c-0.072,1.078-0.098,1.25-0.12,2.402l-0.15,0.195     c-0.562,0.172-1.248,0.244-2.007,0.244c-0.54,0-2.084,0-2.918-1.102c-0.612-0.834-0.612-1.912-0.589-3.652v-1.471     c0-0.613,0.025-3.604,0.025-4.289c-0.441,0-0.685,0.023-1.201,0.049l-0.124-0.146c0.053-1.105,0.053-1.105,0.101-2.402     l0.146-0.148c0.465,0.025,0.588,0.025,1.102,0c0-0.441,0-0.686-0.023-2.99l0.124-0.172c1.615-0.391,2.083-0.539,3.503-0.98     l0.172,0.123c-0.049,1.078-0.075,1.373-0.097,4.094c0.88-0.025,1.078-0.025,1.786-0.074l0.15,0.148     c-0.076,1.127-0.076,1.273-0.124,2.402L410.117,88.429z"/>
			<path d="M423.451,88.429c-0.711-0.023-1.102-0.023-1.543-0.023c0,5.785,0.098,8.088,0.173,10.146l-0.15,0.123     c-1.765,0-2.132,0-3.75,0.072l-0.122-0.146c0-0.295,0-0.611,0.025-0.906c0.048-1.715,0.048-7.133,0.048-9.314     c-0.539,0-0.686,0.025-1.225,0.049l-0.123-0.146c0.049-0.908,0.074-1.25,0.123-2.426l0.146-0.148     c0.465,0.049,0.588,0.049,1.078,0.049c-0.025-1.91-0.048-3.48,0.734-4.484c0.982-1.275,2.795-1.275,3.36-1.275     c0.857,0,1.42,0.123,1.715,0.172l0.098,0.146c-0.098,1.08-0.123,1.35-0.146,2.549l-0.173,0.148     c-0.171-0.1-0.317-0.172-0.588-0.172c-0.464,0-0.783,0.244-0.955,0.514c-0.296,0.443-0.296,0.908-0.296,2.428     c0.761,0,1.008,0,1.716-0.049l0.149,0.146c-0.101,1.078-0.101,1.324-0.149,2.402L423.451,88.429z"/>
			<path d="M431.295,97.279c-0.685,0.734-1.741,1.641-3.382,1.641c-2.649,0-2.893-2.377-2.967-2.965     c-0.074-0.736-0.074-1.543-0.074-2.99v-1.299c0.025-3.529,0-4.117-0.071-5.785l0.122-0.146c1.544,0,1.938,0,3.579-0.148     l0.146,0.148c0,0.857-0.051,5.049-0.051,5.98c0,0.588,0,2.598,0.075,3.039c0.022,0.27,0.173,1.152,1.176,1.152     c0.712,0,1.079-0.393,1.398-0.711v-2.01c0-0.465-0.075-5.27-0.146-7.305l0.146-0.146c1.617-0.025,2.033-0.049,3.604-0.148     l0.145,0.148c-0.025,1.52-0.048,2.377-0.048,4.705c0,0.516,0,3.678,0.022,5.1c0.025,1.371,0.053,2.23,0.075,2.99l-0.123,0.146     c-1.738-0.025-2.035,0-3.552,0.049l-0.123-0.098L431.295,97.279z M429.114,80.904c-0.024,1.252-0.024,1.422,0,2.869l-0.149,0.123     c-1.127,0.023-1.468,0.049-2.719,0.121l-0.124-0.121c0-1.203,0-1.52-0.071-2.869l0.12-0.123c1.349-0.023,1.765-0.049,2.844-0.121     L429.114,80.904z M433.647,80.904c-0.022,1.252-0.022,1.422,0,2.869l-0.146,0.123c-1.127,0.023-1.495,0.049-2.72,0.121     l-0.122-0.121c0-1.301-0.026-1.691-0.076-2.869l0.124-0.123c1.348-0.023,1.765-0.049,2.843-0.121L433.647,80.904z"/>
			<path d="M440.978,98.675c-1.644,0-2.108,0-3.75,0.072l-0.148-0.146c0.048-1.592,0.097-3.332,0.097-5.711     c0-2.23-0.049-4.484-0.243-6.691l0.146-0.146c1.715-0.221,2.108-0.295,3.7-0.662l0.149,0.123c0,1.471-0.025,2.328-0.025,2.893     c0.344-1.031,0.955-3.016,2.842-3.016c0.32,0,0.54,0.049,0.762,0.098l0.123,0.172c-0.247,1.74-0.296,2.133-0.468,4.02     l-0.169,0.098c-0.271-0.244-0.588-0.562-1.203-0.562c-0.441,0-0.884,0.221-1.153,0.539c-0.588,0.686-0.61,1.863-0.61,3.188     c0,1.91,0.022,3.209,0.098,5.588L440.978,98.675z"/>
			<path d="M348.056,123.748h0.907c2.451-0.023,3.162-0.072,4.903-0.148l0.122,0.148c-0.122,1.201-0.148,1.52-0.197,2.867     l-0.121,0.123h-7.623c-1.421,0-1.986,0.023-3.286,0.074l-0.096-0.17c1.004-2.234,1.225-2.771,2.671-6.178l1.766-4.094     c0.22-0.516,0.415-1.006,0.637-1.52c0.588-1.373,0.637-1.496,1.004-2.477h-1.029c-1.739,0.023-2.5,0.049-4.312,0.123     l-0.124-0.146c0.076-1.178,0.099-1.643,0.146-2.795l0.148-0.146c1.422,0.023,1.69,0.023,3.53,0h2.916     c1.888,0,2.327,0,3.971-0.051l0.073,0.146c-0.734,1.84-1.985,4.781-2.746,6.619L348.056,123.748z"/>
			<path d="M358.454,121.027c0.05,2.156,1.226,3.26,3.063,3.26c1.473,0,2.33-0.611,2.672-0.881l0.172,0.096     c-0.074,1.055-0.098,1.521-0.122,2.551l-0.1,0.195c-0.513,0.441-2.059,0.783-3.479,0.783c-4.216,0-5.907-2.67-5.907-6.787     c0-0.885,0.073-1.791,0.295-2.672c0.736-2.99,2.793-4.094,4.949-4.094c0.712,0,1.424,0.123,2.084,0.416     c2.307,1.029,2.695,3.334,2.695,5.711c0,0.467-0.022,0.932-0.022,1.275l-0.172,0.146H358.454z M361.176,118.697     c0-0.391,0-0.809-0.073-1.248c-0.123-0.809-0.516-1.473-1.228-1.473c-0.343,0-1.371,0.148-1.445,2.721H361.176z"/>
			<path d="M370.366,126.738c-1.568-0.025-2.156-0.025-3.874,0.074l-0.146-0.148c0.075-1.566,0.124-3.113,0.124-5.881     c0-3.873-0.124-5.221-0.222-6.521l0.124-0.146c1.715-0.244,2.154-0.318,3.846-0.688l0.147,0.148     c-0.022,0.344-0.022,0.686-0.022,1.006c-0.027,1.471-0.051,2.916-0.051,4.387c0,2.549,0.051,5.074,0.221,7.623L370.366,126.738z      M369.999,111.468c-1.472,0.172-1.911,0.221-3.407,0.49l-0.148-0.148c0.027-1.299,0-1.617-0.048-2.965l0.147-0.146     c1.691-0.172,1.984-0.221,3.482-0.443l0.145,0.148c-0.047,1.396-0.025,1.764-0.025,2.916L369.999,111.468z"/>
			<path d="M378.209,116.492c-1.078-0.025-1.101-0.025-1.689-0.025v3.09c-0.025,0.662-0.025,1.545-0.025,2.205     c0,1.25,0.025,2.451,1.127,2.451c0.393,0,0.663-0.146,0.81-0.244l0.147,0.123c-0.073,1.078-0.1,1.25-0.121,2.402l-0.148,0.195     c-0.563,0.172-1.249,0.244-2.01,0.244c-0.539,0-2.085,0-2.918-1.102c-0.612-0.834-0.612-1.914-0.588-3.652v-1.471     c0-0.613,0.023-3.604,0.023-4.289c-0.438,0-0.685,0.023-1.2,0.047l-0.122-0.145c0.048-1.104,0.048-1.104,0.098-2.402l0.148-0.146     c0.465,0.023,0.588,0.023,1.102,0c0-0.441,0-0.688-0.025-2.992l0.123-0.172c1.617-0.393,2.084-0.539,3.506-0.98l0.172,0.123     c-0.049,1.078-0.074,1.373-0.098,4.094c0.881-0.025,1.079-0.025,1.789-0.072l0.148,0.146c-0.075,1.127-0.075,1.273-0.124,2.402     L378.209,116.492z"/>
			<path d="M389.462,116.173c-0.713-0.098-0.81-0.098-1.57-0.148c0.906,0.762,1.03,1.963,1.03,2.502     c0,1.717-1.153,3.873-4.439,3.873c-0.389,0-0.61-0.025-0.88-0.074c-0.196,0.295-0.221,0.344-0.367,0.613l0.023,0.148     c0.442,0.145,2.524,0.93,2.989,1.1c1.937,0.787,3.236,1.619,3.236,3.631c0,0.539-0.098,1.053-0.293,1.543     c-0.247,0.564-0.64,1.055-1.104,1.445c-1.372,1.152-3.211,1.273-4.314,1.273c-3.088,0-4.876-1.469-4.876-3.283     c0-1.984,1.739-2.77,2.303-3.016c-0.612-0.318-0.784-0.416-1.323-0.807l-0.026-0.248c0.247-0.463,0.492-0.955,0.737-1.396     c0.294-0.49,0.588-0.979,0.882-1.445c-1.716-0.809-2.206-2.303-2.206-3.627c0-1.422,0.49-2.426,1.104-3.113     c1.177-1.324,2.745-1.396,4.461-1.396h4.78l0.123,0.146c-0.075,0.98-0.101,1.324-0.123,2.131L389.462,116.173z M382.01,128.503     c0,0.883,0.735,1.52,1.788,1.52c1.104,0,1.791-0.637,1.791-1.447c0-0.785-0.443-1.127-1.546-1.617     c-0.121-0.074-0.709-0.316-0.856-0.393C382.598,127.105,382.01,127.646,382.01,128.503z M384.068,115.755     c-0.613,0-1.25,0.518-1.25,2.379c0,0.982,0.219,2.279,1.298,2.279c0.173,0,0.366-0.049,0.54-0.148     c0.636-0.414,0.712-1.543,0.712-2.082C385.368,116.345,384.682,115.755,384.068,115.755z"/>
			<path d="M394.188,121.027c0.053,2.156,1.229,3.26,3.064,3.26c1.472,0,2.33-0.611,2.674-0.881l0.172,0.096     c-0.074,1.055-0.101,1.521-0.123,2.551l-0.098,0.195c-0.517,0.441-2.06,0.783-3.482,0.783c-4.215,0-5.907-2.67-5.907-6.787     c0-0.885,0.075-1.791,0.296-2.672c0.733-2.99,2.794-4.094,4.95-4.094c0.713,0,1.421,0.123,2.084,0.416     c2.303,1.029,2.697,3.334,2.697,5.711c0,0.467-0.026,0.932-0.026,1.275l-0.172,0.146H394.188z M396.912,118.697     c0-0.391,0-0.809-0.076-1.248c-0.122-0.809-0.513-1.473-1.224-1.473c-0.345,0-1.371,0.148-1.446,2.721H396.912z"/>
			<path d="M401.864,123.578c0.415,0.34,1.199,1.004,2.449,1.004c1.371,0,1.69-0.834,1.69-1.324c0-0.809-0.611-1.176-1.274-1.568     c-1.812-1.078-3.162-1.887-3.162-4.143c0-0.49,0.027-1.984,1.273-3.039c0.96-0.811,2.233-1.029,3.483-1.029     c0.832,0,1.938,0.098,2.893,0.465l0.098,0.172c0,0.441-0.026,0.883-0.049,1.324v1.25l-0.172,0.049     c-0.318-0.295-0.956-0.883-2.207-0.883c-1.225,0-1.617,0.662-1.617,1.225c0,0.809,0.587,1.129,1.865,1.889     c1.224,0.736,2.67,1.617,2.67,3.822c0,1.127-0.42,2.232-1.251,3.016c-1.079,1.029-2.378,1.201-3.555,1.201     c-0.955,0-2.181-0.123-3.285-0.613l-0.119-0.221c0.022-0.465,0.048-0.93,0.048-1.42c0.022-0.367,0.022-0.736,0.022-1.105     L401.864,123.578z"/>
			<path d="M419.046,123.771c-0.075,1.08-0.101,1.521-0.124,2.6l-0.123,0.172c-0.686,0.293-1.689,0.465-2.548,0.465     c-0.98,0-2.304-0.172-3.457-1.176c-1.91-1.666-1.91-4.387-1.91-5.123c0-1.691,0.218-3.408,1.101-4.854     c1.031-1.715,2.648-2.377,4.559-2.377c1.251,0,1.963,0.295,2.353,0.465l0.102,0.172c-0.026,0.441-0.075,0.883-0.102,1.324     c-0.022,0.441-0.048,0.906-0.048,1.373l-0.173,0.072c-0.169-0.146-0.734-0.639-1.593-0.639c-0.711,0-1.273,0.346-1.665,0.885     c-0.368,0.49-0.761,1.42-0.761,3.211c0,1.641,0.366,3.846,2.648,3.846c0.565,0,1.102-0.145,1.591-0.463L419.046,123.771z"/>
			<path d="M424.388,126.738c-1.618-0.025-2.158-0.025-3.75,0.049l-0.124-0.145c0.049-3.016,0.076-6.057,0.076-9.096     c0-2.918-0.027-5.834-0.271-8.727l0.099-0.146c1.568-0.27,2.083-0.344,3.824-0.711l0.123,0.146     c-0.025,1.766-0.048,3.285-0.048,6.986c0.341-0.318,0.66-0.639,1.224-0.955c0.562-0.344,1.301-0.639,2.132-0.639     c1.521,0,2.304,0.906,2.648,1.986c0.27,0.883,0.27,2.033,0.27,4.363v1.445c0.049,3.457,0.049,3.801,0.146,5.295l-0.146,0.146     c-1.521-0.025-1.985-0.049-3.678,0.049l-0.123-0.145c0.025-1.424,0.025-2.846,0.025-4.291c0-0.857,0-3.383-0.025-4.094     c-0.049-0.539-0.098-1.691-1.054-1.691c-0.49,0-0.981,0.365-1.371,0.785c0,2.914,0.023,6.42,0.146,9.24L424.388,126.738z"/>
			<path d="M436.741,126.738c-1.57-0.025-2.158-0.025-3.873,0.074l-0.146-0.148c0.075-1.566,0.124-3.113,0.124-5.881     c0-3.873-0.124-5.221-0.223-6.521l0.124-0.146c1.717-0.244,2.154-0.318,3.848-0.688l0.146,0.148     c-0.023,0.344-0.023,0.686-0.023,1.006c-0.025,1.471-0.049,2.916-0.049,4.387c0,2.549,0.049,5.074,0.218,7.623L436.741,126.738z      M436.374,111.468c-1.473,0.172-1.91,0.221-3.408,0.49l-0.146-0.148c0.026-1.299,0-1.617-0.05-2.965l0.146-0.146     c1.693-0.172,1.985-0.221,3.483-0.443l0.146,0.148c-0.048,1.396-0.025,1.764-0.025,2.916L436.374,111.468z"/>
			<path d="M446.618,123.771c-0.071,1.08-0.097,1.521-0.12,2.6l-0.123,0.172c-0.687,0.293-1.693,0.465-2.551,0.465     c-0.979,0-2.304-0.172-3.454-1.176c-1.914-1.666-1.914-4.387-1.914-5.123c0-1.691,0.222-3.408,1.104-4.854     c1.03-1.715,2.646-2.377,4.56-2.377c1.251,0,1.958,0.295,2.353,0.465l0.097,0.172c-0.022,0.441-0.071,0.883-0.097,1.324     c-0.026,0.441-0.05,0.906-0.05,1.373l-0.171,0.072c-0.174-0.146-0.734-0.639-1.593-0.639c-0.712,0-1.273,0.346-1.667,0.885     c-0.367,0.49-0.76,1.42-0.76,3.211c0,1.641,0.367,3.846,2.647,3.846c0.562,0,1.102-0.145,1.593-0.463L446.618,123.771z"/>
			<path d="M451.963,126.738c-1.617-0.025-2.156-0.025-3.748,0.049l-0.125-0.145c0.049-3.016,0.075-6.057,0.075-9.096     c0-2.918-0.026-5.834-0.271-8.727l0.099-0.146c1.568-0.27,2.082-0.344,3.824-0.711l0.12,0.146     c-0.022,1.766-0.049,3.285-0.049,6.986c0.345-0.318,0.663-0.639,1.225-0.955c0.565-0.344,1.3-0.639,2.135-0.639     c1.518,0,2.305,0.906,2.646,1.986c0.27,0.883,0.27,2.033,0.27,4.363v1.445c0.049,3.457,0.049,3.801,0.149,5.295l-0.149,0.146     c-1.518-0.025-1.986-0.049-3.676,0.049l-0.122-0.145c0.025-1.424,0.025-2.846,0.025-4.291c0-0.857,0-3.383-0.025-4.094     c-0.05-0.539-0.099-1.691-1.054-1.691c-0.491,0-0.981,0.365-1.374,0.785c0,2.914,0.025,6.42,0.149,9.24L451.963,126.738z"/>
			<path d="M466.032,116.492c-1.078-0.025-1.105-0.025-1.693-0.025v3.09c-0.022,0.662-0.022,1.545-0.022,2.205     c0,1.25,0.022,2.451,1.129,2.451c0.393,0,0.661-0.146,0.808-0.244l0.146,0.123c-0.074,1.078-0.098,1.25-0.123,2.402l-0.146,0.195     c-0.563,0.172-1.251,0.244-2.009,0.244c-0.54,0-2.086,0-2.917-1.102c-0.614-0.834-0.614-1.914-0.589-3.652v-1.471     c0-0.613,0.023-3.604,0.023-4.289c-0.438,0-0.688,0.023-1.2,0.047l-0.123-0.145c0.048-1.104,0.048-1.104,0.098-2.402l0.146-0.146     c0.468,0.023,0.588,0.023,1.104,0c0-0.441,0-0.688-0.024-2.992l0.123-0.172c1.617-0.393,2.083-0.539,3.506-0.98l0.172,0.123     c-0.053,1.078-0.075,1.373-0.102,4.094c0.885-0.025,1.079-0.025,1.792-0.072l0.146,0.146c-0.072,1.127-0.072,1.273-0.121,2.402     L466.032,116.492z"/>
			<path d="M470.786,121.027c0.049,2.156,1.228,3.26,3.063,3.26c1.473,0,2.33-0.611,2.675-0.881l0.169,0.096     c-0.071,1.055-0.098,1.521-0.12,2.551l-0.101,0.195c-0.514,0.441-2.058,0.783-3.479,0.783c-4.215,0-5.908-2.67-5.908-6.787     c0-0.885,0.075-1.791,0.296-2.672c0.734-2.99,2.794-4.094,4.952-4.094c0.708,0,1.419,0.123,2.082,0.416     c2.305,1.029,2.697,3.334,2.697,5.711c0,0.467-0.025,0.932-0.025,1.275l-0.173,0.146H470.786z M473.509,118.697     c0-0.391,0-0.809-0.074-1.248c-0.124-0.809-0.514-1.473-1.226-1.473c-0.344,0-1.374,0.148-1.446,2.721H473.509z"/>
		</g>
	</g>
	<g>
		<path d="M295.128,149.115l1.963-7.535c0.184-0.682,0.382-1.363,0.565-2.047c0.083-0.348,0.232-0.848,0.283-1.064l0.115-0.1    c0.617,0,0.766,0,1.365-0.035l0.116,0.102c0.017,1.348,0.033,2.113,0.116,4.375l0.084,2.713c0.066,1.629,0.132,3.109,0.216,4.49    l-0.101,0.1c-0.449,0-0.549,0-0.998,0.033l-0.083-0.098v-0.699c0-1.365-0.018-1.83-0.05-3.246l-0.099-7.15l-1.948,7.418    c-0.266,1.016-0.682,2.627-0.947,3.643l-0.116,0.1c-0.533,0-0.666,0-1.182,0.033l-0.116-0.098    c-0.033-0.086-0.05-0.168-0.067-0.234c-0.216-0.932-0.565-2.428-0.78-3.344l-1.715-7.453l-0.199,6.238    c-0.051,0.982-0.1,1.996-0.133,3.129c-0.017,0.516-0.033,1.047-0.033,1.629l-0.117,0.1c-0.383,0-0.466,0-0.881,0.033l-0.116-0.098    c0.116-1.215,0.198-2.512,0.299-4.127l0.216-3.66l0.1-2.195c0.018-0.533,0.051-1.064,0.051-1.598l0.116-0.1    c0.599,0,0.766,0,1.397-0.035l0.116,0.102c0.067,0.266,0.532,2.195,0.616,2.496L295.128,149.115z"/>
		<path d="M314.061,149.316c-0.699,0.6-1.365,0.947-2.362,0.947c-0.301,0-1.632,0-2.079-1.463c-0.151-0.5-0.151-1.066-0.151-1.748    v-1.43c0-0.449,0.018-1.48,0.018-2.264c0-0.881-0.018-1.248-0.034-1.662l0.083-0.084c0.448,0,0.548,0,0.965-0.033l0.083,0.1    c-0.051,1.332-0.066,2.662-0.066,3.992c0,0.234-0.017,1.396-0.017,1.646c0,0.551,0,2.146,1.546,2.146    c0.933,0,1.548-0.6,1.98-1.031c0.017-3.127,0.017-4.959-0.065-6.736l0.082-0.084c0.416,0,0.499,0,0.949-0.033l0.099,0.1    c-0.049,1.281-0.049,1.414-0.049,4.941c0,1.547,0.017,2.18,0.081,3.393l-0.098,0.1c-0.399,0-0.5,0.016-0.898,0.033l-0.101-0.098    L314.061,149.316z M311.512,139.085c-0.016,0.496-0.016,0.664-0.016,1.115l-0.082,0.098c-0.382,0-0.483,0.018-0.898,0.051    l-0.1-0.1c0.016-0.484,0.016-0.566,0-1.115l0.115-0.102c0.416,0,0.518-0.016,0.883-0.049L311.512,139.085z M314.093,139.085    c-0.017,0.496-0.017,0.664-0.017,1.115l-0.1,0.098c-0.366,0-0.483,0.018-0.915,0.051l-0.084-0.1c0.017-0.467,0.017-0.6,0-1.115    l0.1-0.102c0.416,0,0.481-0.016,0.915-0.049L314.093,139.085z"/>
		<path d="M329.081,150.048c0.049-0.768,0.084-2.746,0.084-3.645c0-0.549,0-1.682-0.035-2.279c-0.016-0.465-0.064-1.797-1.397-1.797    c-0.764,0-1.495,0.5-2.079,1.113c-0.017,2.197-0.017,4.395,0.084,6.572l-0.101,0.1c-0.48,0-0.614,0-0.949,0.033l-0.099-0.098    c0.035-1.066,0.051-2.129,0.051-3.195c0-1.695,0-3.395-0.085-5.074l0.069-0.1c0.48-0.066,0.581-0.082,0.996-0.166l0.102,0.1    c-0.05,0.465-0.068,0.518-0.085,0.914c0.698-0.582,1.431-1.08,2.431-1.08c0.747,0,1.381,0.316,1.763,0.965    c0.333,0.582,0.333,1.148,0.333,2.545l0.016,1.664v1.879c0,0.816,0.017,1.064,0.05,1.514l-0.1,0.1c-0.416,0-0.466,0-0.947,0.033    L329.081,150.048z"/>
		<path d="M344.385,148.9c-0.016,0.299-0.032,0.465-0.064,0.914l-0.086,0.148c-0.397,0.201-0.947,0.334-1.529,0.334    c-2.194,0-3.409-1.547-3.409-4.344c0-0.863,0.099-2.311,0.931-3.391c0.617-0.783,1.432-1.148,2.462-1.148    c0.733,0,1.232,0.217,1.499,0.332l0.083,0.133c-0.052,0.434-0.067,0.582-0.083,0.865l-0.102,0.051    c-0.348-0.334-0.815-0.516-1.381-0.516h-0.1c-2.13,0.1-2.229,2.744-2.229,3.627c0,0.564,0.034,1.879,0.698,2.744    c0.451,0.566,1,0.781,1.714,0.781c0.832,0,1.313-0.398,1.515-0.582L344.385,148.9z"/>
		<path d="M354.101,150.113c-0.414-0.016-0.531-0.016-0.964,0.016l-0.082-0.08c0.032-1.881,0.099-6.938,0.099-8.52    c0-1.297,0-2.594-0.115-3.893l0.099-0.1c0.382-0.033,0.565-0.066,1.032-0.15l0.082,0.084c-0.034,0.949-0.065,1.912-0.082,2.863    c0,0.613-0.017,1.812-0.032,2.16c0.564-0.449,1.296-1.047,2.426-1.047c0.749,0,1.397,0.299,1.766,0.965    c0.298,0.582,0.314,1.266,0.33,2.545v1.648c0,1.396,0,2.344,0.053,3.408l-0.085,0.1c-0.448,0-0.533,0-0.981,0.016l-0.066-0.08    c0.018-0.484,0.034-0.965,0.034-1.449c0.017-0.965,0.032-2.045,0.032-3.643c0-0.98-0.016-1.73-0.415-2.195    c-0.134-0.168-0.449-0.449-1.015-0.449c-0.915,0-1.78,0.799-2.078,1.113c-0.036,3.76,0,4.725,0.049,6.588L354.101,150.113z"/>
		<path d="M368.809,145.705c-0.035,2.047,0.698,3.744,2.71,3.744c0.217,0,0.998,0,1.781-0.648l0.117,0.064    c-0.052,0.334-0.052,0.416-0.068,0.848l-0.099,0.133c-0.134,0.086-0.317,0.203-0.617,0.283c-0.465,0.135-1.03,0.168-1.347,0.168    c-0.614,0-1.745-0.1-2.597-1.197c-0.449-0.564-0.913-1.58-0.913-3.279c0-2.744,1.295-4.391,3.127-4.391    c1.133,0,1.781,0.615,2.113,1.064c0.664,0.947,0.684,2.312,0.684,3.111l-0.118,0.1H368.809z M372.618,144.908    c0-0.318,0-0.717-0.102-1.166c-0.299-1.23-1.114-1.547-1.664-1.547c-1.064,0-1.829,1.049-1.979,2.713H372.618z"/>
		<path d="M387.089,150.048c0.052-0.768,0.085-2.746,0.085-3.645c0-0.549,0-1.682-0.033-2.279c-0.019-0.465-0.067-1.797-1.399-1.797    c-0.764,0-1.494,0.5-2.078,1.113c-0.017,2.197-0.017,4.395,0.083,6.572l-0.1,0.1c-0.481,0-0.616,0-0.948,0.033l-0.1-0.098    c0.033-1.066,0.049-2.129,0.049-3.195c0-1.695,0-3.395-0.081-5.074l0.065-0.1c0.481-0.066,0.581-0.082,0.997-0.166l0.102,0.1    c-0.05,0.465-0.067,0.518-0.084,0.914c0.698-0.582,1.432-1.08,2.43-1.08c0.747,0,1.38,0.316,1.764,0.965    c0.332,0.582,0.332,1.148,0.332,2.545l0.016,1.664v1.879c0,0.816,0.017,1.064,0.049,1.514l-0.097,0.1    c-0.416,0-0.469,0-0.949,0.033L387.089,150.048z"/>
		<path d="M401.646,145.007c-0.049,0.381-0.066,0.498-0.102,0.812l-0.097,0.102c-0.452-0.016-0.9-0.033-1.717-0.033h-2.943    c-0.799,0-1.065,0-1.712,0.018l-0.085-0.086c0.069-0.363,0.069-0.447,0.101-0.797l0.118-0.1c0.613,0.033,1.129,0.033,1.894,0.033    c0.751,0,1.946,0.016,2.697,0.016c0.831,0,1.312-0.031,1.744-0.049L401.646,145.007z"/>
		<path d="M408.915,138.369c0.782-0.018,1.033-0.018,1.55-0.035c0.881-0.016,0.964-0.016,1.162-0.016c1.03,0,1.83,0.117,2.412,0.816    c0.45,0.564,0.601,1.279,0.601,1.961c0,1.1-0.399,2.48-1.998,2.812c-0.065,0.016-0.15,0.035-0.214,0.053h0.214    c1.829,0.133,2.512,1.445,2.512,2.875c0,0.816-0.23,1.533-0.598,2.064c-0.816,1.197-1.979,1.197-3.978,1.213    c-0.581,0-0.663,0-1.53,0.033l-0.098-0.098c0.016-0.502,0.032-1.215,0.016-2.414c-0.031-0.914-0.031-5.141-0.031-5.805    c-0.054-2.328-0.085-2.744-0.117-3.361L408.915,138.369z M411.559,143.609c0.368-0.033,2.048-0.232,2.048-2.428    c0-0.551-0.098-1.115-0.48-1.531c-0.433-0.482-1.034-0.531-1.866-0.531c-0.513,0-0.929,0.016-1.279,0.016v4.508    C410.861,143.66,411.243,143.642,411.559,143.609z M410.679,149.265c1.114,0,1.765-0.033,2.245-0.268    c0.8-0.381,1.15-1.264,1.15-2.178c0-0.281,0-1.215-0.717-1.812c-0.516-0.434-1.197-0.551-2.38-0.551c-0.23,0-0.331,0-0.997,0.035    c0,2.195,0.032,2.826,0.084,4.773H410.679z"/>
		<path d="M424.888,145.705c-0.036,2.047,0.698,3.744,2.709,3.744c0.218,0,0.998,0,1.781-0.648l0.117,0.064    c-0.052,0.334-0.052,0.416-0.068,0.848l-0.098,0.133c-0.132,0.086-0.318,0.203-0.617,0.283c-0.464,0.135-1.03,0.168-1.349,0.168    c-0.614,0-1.744-0.1-2.593-1.197c-0.451-0.564-0.916-1.58-0.916-3.279c0-2.744,1.296-4.391,3.129-4.391    c1.131,0,1.78,0.615,2.112,1.064c0.667,0.947,0.683,2.312,0.683,3.111l-0.118,0.1H424.888z M428.695,144.908    c0-0.318,0-0.717-0.101-1.166c-0.298-1.23-1.114-1.547-1.664-1.547c-1.062,0-1.829,1.049-1.979,2.713H428.695z"/>
		<path d="M439.727,150.113c-0.451,0-0.532-0.016-0.984,0.016l-0.08-0.08c0.016-0.684,0.031-1.199,0.031-2.414    c0-1.611,0-4.375-0.133-5.871l0.068-0.102c0.448-0.031,0.548-0.049,0.981-0.148l0.097,0.1c0,0.35-0.016,0.73-0.033,1.182    c0.202-0.4,0.651-1.398,1.766-1.398c0.299,0,0.48,0.084,0.597,0.133l0.068,0.117c0,0.133-0.016,0.266-0.035,0.398    c-0.016,0.166-0.016,0.334-0.016,0.502l-0.098,0.064c-0.134-0.064-0.384-0.182-0.733-0.182c-0.401,0-0.716,0.182-0.914,0.365    c-0.532,0.549-0.582,1.596-0.582,3.229c0,0.197,0.016,2.576,0.099,3.99L439.727,150.113z"/>
		<path d="M451.72,150.113c-0.416-0.016-0.533-0.016-0.966,0.033l-0.084-0.098v-5.406c0-2.896,0-5.16-0.166-7.006l0.102-0.1    c0.383-0.033,0.517-0.051,0.98-0.15l0.102,0.1c-0.017,0.998-0.032,2.197-0.032,3.361c0,2.611,0.064,7.586,0.148,9.166    L451.72,150.113z"/>
		<path d="M462.335,150.113c-0.436-0.016-0.566-0.016-0.965,0.033l-0.102-0.098c0.033-0.865,0.066-1.631,0.066-3.744    c0-1.514,0-3.162-0.083-4.541l0.083-0.084c0.467-0.049,0.584-0.082,1-0.166l0.081,0.1c-0.033,0.666-0.065,1.314-0.065,2.795    c0,0.117,0,2.678,0.032,3.76c0.017,0.5,0.033,0.98,0.051,1.48v0.365L462.335,150.113z M462.383,138.734    c-0.432,0-0.549,0-0.996,0.084l-0.118-0.1c0.017-0.518,0.017-0.598,0.017-1.031l0.117-0.1c0.497-0.033,0.582-0.051,0.997-0.117    l0.117,0.102c-0.033,0.496-0.033,0.646-0.033,1.045L462.383,138.734z"/>
		<path d="M476.357,150.048c0.05-0.768,0.082-2.746,0.082-3.645c0-0.549,0-1.682-0.032-2.279c-0.017-0.465-0.065-1.797-1.396-1.797    c-0.768,0-1.499,0.5-2.08,1.113c-0.016,2.197-0.016,4.395,0.084,6.572l-0.1,0.1c-0.484,0-0.618,0-0.949,0.033l-0.101-0.098    c0.035-1.066,0.051-2.129,0.051-3.195c0-1.695,0-3.395-0.084-5.074l0.068-0.1c0.481-0.066,0.582-0.082,0.998-0.166l0.098,0.1    c-0.05,0.465-0.065,0.518-0.081,0.914c0.698-0.582,1.43-1.08,2.426-1.08c0.751,0,1.382,0.316,1.765,0.965    c0.335,0.582,0.335,1.148,0.335,2.545l0.017,1.664v1.879c0,0.816,0.016,1.064,0.048,1.514l-0.101,0.1    c-0.416,0-0.465,0-0.949,0.033L476.357,150.048z"/>
	</g>
</g>
</svg>